<svg xmlns="http://www.w3.org/2000/svg" width="29.64" height="28.354" viewBox="0 0 29.64 28.354"><defs><style>.a{fill:#fff;}.b{fill:#325655;}.c{fill:#28b78d;}.d{fill:#243743;}.e{fill:#f2b134;}.f{fill:#ed553b;}</style></defs><g transform="translate(-707.862 -36.957)"><g transform="translate(707.862 36.957)"><path class="a" d="M673.47,30.693l1.684,1.381a.8.8,0,0,0,.722.151l3.224-.909.748.845a.8.8,0,0,0,.669.266l2.42-.222,1.448,1.782a.8.8,0,0,0,.833.266l2.962-.826a.8.8,0,0,0,.57-.907c-.843-4.753-3.112-7.974-6.07-8.616a5.245,5.245,0,0,0-1.115-.119c-2.778,0-5.865,2.189-8.257,5.856A.8.8,0,0,0,673.47,30.693Zm8.094-5.313a3.68,3.68,0,0,1,.777.082c2.134.463,3.9,2.977,4.7,6.629l-1.749.487-1.386-1.706a.8.8,0,0,0-.618-.295c-.024,0-.049,0-.073,0l-2.442.224-.811-.918a.8.8,0,0,0-.814-.239l-3.305.932-.8-.655C677.043,27.1,679.5,25.38,681.564,25.38Z" transform="translate(-665.03 -23.787)"/><path class="a" d="M686.826,39.878a.8.8,0,0,0-.643.044l-2.258,1.192-1.718-1.374a.794.794,0,0,0-.818-.107l-2.36,1.037-1.4-.523a.8.8,0,0,0-.562,0l-2.75,1.043-1.624-.831a.8.8,0,0,0-1.107.425,19.469,19.469,0,0,0-1.3,6.747c0,5.874,3.369,9.243,9.243,9.243s9.242-3.369,9.242-9.243a19.505,19.505,0,0,0-1.483-7.209A.8.8,0,0,0,686.826,39.878Zm-7.293,15.3c-2.857,0-7.649-.994-7.649-7.649a17.541,17.541,0,0,1,.9-5.339l1.129.578a.8.8,0,0,0,.646.037l2.8-1.062,1.418.531a.8.8,0,0,0,.6-.016l2.214-.974,1.748,1.4a.8.8,0,0,0,.869.082l1.925-1.016a17.632,17.632,0,0,1,1.05,5.782C687.181,54.19,682.389,55.183,679.533,55.183Z" transform="translate(-664.182 -28.422)"/><ellipse class="a" cx="0.903" cy="0.903" rx="0.903" ry="0.903" transform="translate(11.261 9.285)"/><ellipse class="a" cx="0.903" cy="0.903" rx="0.903" ry="0.903" transform="translate(13.811 9.285)"/><path class="a" d="M666.5,32.187a.8.8,0,0,0,1.116-1.138L664.8,28.287a.8.8,0,1,0-1.116,1.137Z" transform="translate(-662.171 -25.042)"/><path class="a" d="M666.634,36.3a.8.8,0,0,0-.8-.8h-3.4a.8.8,0,0,0,0,1.593h3.4A.8.8,0,0,0,666.634,36.3Z" transform="translate(-661.641 -27.229)"/><path class="a" d="M666.511,39.209l-3.134,2.443a.8.8,0,1,0,.98,1.257l3.134-2.443a.8.8,0,0,0-.98-1.257Z" transform="translate(-662.061 -28.268)"/><path class="a" d="M698.464,36.055a.785.785,0,0,0,.328-.071l2.338-1.063a.8.8,0,1,0-.659-1.45l-2.337,1.062a.8.8,0,0,0,.33,1.522Z" transform="translate(-672.224 -26.611)"/><path class="a" d="M701.426,40.819l-2.708-1.594a.8.8,0,1,0-.808,1.374l2.709,1.593a.8.8,0,1,0,.807-1.373Z" transform="translate(-672.179 -28.29)"/><path class="b" d="M673.47,30.693l1.684,1.381a.8.8,0,0,0,.722.151l3.224-.909.748.845a.8.8,0,0,0,.669.266l2.42-.222,1.448,1.782a.8.8,0,0,0,.833.266l2.962-.826a.8.8,0,0,0,.57-.907c-.843-4.753-3.112-7.974-6.07-8.616a5.245,5.245,0,0,0-1.115-.119c-2.778,0-5.865,2.189-8.257,5.856A.8.8,0,0,0,673.47,30.693Zm8.094-5.313a3.68,3.68,0,0,1,.777.082c2.134.463,3.9,2.977,4.7,6.629l-1.749.487-1.386-1.706a.8.8,0,0,0-.618-.295c-.024,0-.049,0-.073,0l-2.442.224-.811-.918a.8.8,0,0,0-.814-.239l-3.305.932-.8-.655C677.043,27.1,679.5,25.38,681.564,25.38Z" transform="translate(-665.03 -23.787)"/><path class="b" d="M686.826,39.878a.8.8,0,0,0-.643.044l-2.258,1.192-1.718-1.374a.794.794,0,0,0-.818-.107l-2.36,1.037-1.4-.523a.8.8,0,0,0-.562,0l-2.75,1.043-1.624-.831a.8.8,0,0,0-1.107.425,19.469,19.469,0,0,0-1.3,6.747c0,5.874,3.369,9.243,9.243,9.243s9.242-3.369,9.242-9.243a19.505,19.505,0,0,0-1.483-7.209A.8.8,0,0,0,686.826,39.878Zm-7.293,15.3c-2.857,0-7.649-.994-7.649-7.649a17.541,17.541,0,0,1,.9-5.339l1.129.578a.8.8,0,0,0,.646.037l2.8-1.062,1.418.531a.8.8,0,0,0,.6-.016l2.214-.974,1.748,1.4a.8.8,0,0,0,.869.082l1.925-1.016a17.632,17.632,0,0,1,1.05,5.782C687.181,54.19,682.389,55.183,679.533,55.183Z" transform="translate(-664.182 -28.422)"/><ellipse cx="0.903" cy="0.903" rx="0.903" ry="0.903" transform="translate(11.261 9.285)"/><ellipse cx="0.903" cy="0.903" rx="0.903" ry="0.903" transform="translate(13.811 9.285)"/><path class="c" d="M666.5,32.187a.8.8,0,0,0,1.116-1.138L664.8,28.287a.8.8,0,1,0-1.116,1.137Z" transform="translate(-662.171 -25.042)"/><path class="d" d="M666.634,36.3a.8.8,0,0,0-.8-.8h-3.4a.8.8,0,0,0,0,1.593h3.4A.8.8,0,0,0,666.634,36.3Z" transform="translate(-661.641 -27.229)"/><path class="e" d="M666.511,39.209l-3.134,2.443a.8.8,0,1,0,.98,1.257l3.134-2.443a.8.8,0,0,0-.98-1.257Z" transform="translate(-662.061 -28.268)"/><path class="f" d="M698.464,36.055a.785.785,0,0,0,.328-.071l2.338-1.063a.8.8,0,1,0-.659-1.45l-2.337,1.062a.8.8,0,0,0,.33,1.522Z" transform="translate(-672.224 -26.611)"/><path class="d" d="M701.426,40.819l-2.708-1.594a.8.8,0,1,0-.808,1.374l2.709,1.593a.8.8,0,1,0,.807-1.373Z" transform="translate(-672.179 -28.29)"/></g></g></svg>