<svg xmlns="http://www.w3.org/2000/svg" width="17.083" height="17.085" viewBox="0 0 17.083 17.085"><defs><style>.a{fill:#ed553b;}.b{fill:#fff;}</style></defs><path class="a" d="M111,252.015a8.346,8.346,0,1,1-8.346-8.346A8.346,8.346,0,0,1,111,252.015Z" transform="translate(-94.18 -243.361)"/><path class="b" d="M102.724,258.957a7.048,7.048,0,1,1,7.043-7.05,7.05,7.05,0,0,1-7.043,7.05Zm0-4.623h0a1.316,1.316,0,1,0,1.316,1.321,1.322,1.322,0,0,0-1.316-1.321Zm0-7.492h0a1.319,1.319,0,0,0-1.328,1.318v3.975a1.322,1.322,0,0,0,2.644,0V248.16a1.317,1.317,0,0,0-1.316-1.318Zm0,13.6h0a8.543,8.543,0,1,0-8.544-8.539,8.551,8.551,0,0,0,8.544,8.539Z" transform="translate(-94.18 -243.361)"/></svg>